<?xml version="1.0" encoding="iso-8859-1"?>
<!-- Generator: Adobe Illustrator 22.1.0, SVG Export Plug-In . SVG Version: 6.00 Build 0)  -->
<svg version="1.1" id="Layer_1" xmlns="http://www.w3.org/2000/svg" xmlns:xlink="http://www.w3.org/1999/xlink" x="0px" y="0px"
	 viewBox="0 0 6377.26 6296.44" style="enable-background:new 0 0 6377.26 6296.44;" xml:space="preserve">
<g>
	<circle style="fill:#B4BBAF;" cx="3179.88" cy="2570.42" r="2361.84"/>
	<path style="fill:#B4BBAF;" d="M2265.18,488.22c-306.26,74.21-604.17,193.11-868.26,366.3c-257.38,168.79-485.87,392.7-633,665.09
		c-141.8,262.48-209.24,568.27-183.28,866c26,298.82,151,579.09,370.08,786.1c231.64,218.92,534.6,345.44,836.64,433.57
		c38.12,11.133,76.39,21.71,114.81,31.73c12.63,3.31,18-16.24,5.39-19.56c-301.69-79.23-606.8-187.92-854-383.64
		c-118.83-94.06-221.81-207.86-297.39-339.56c-72.6-126.53-119.64-266.62-143-410.43c-47.47-292,1.39-599.08,124.87-867
		c128.21-278.2,341.38-511.43,588.59-689.38c250.52-180.33,537-307.74,833.55-390.85c36.667-10.267,73.493-19.863,110.48-28.79
		c12.67-3.07,7.3-22.63-5.4-19.55L2265.18,488.22z"/>
	<path style="fill:#B4BBAF;" d="M1084.68,1980.07c-179.86,181.57-275.36,425.63-338.46,669c-69.28,267.17-112.78,555.69-1.84,818
		c98.08,231.92,285.66,415.64,478,571.85c200.969,163.023,422.347,299.131,658.53,404.88c235.87,105.66,485.22,181.13,740.43,222.24
		c29.9,4.807,59.863,9.14,89.89,13c12.9,1.69,12.78-18.6,0-20.28c-250-32.75-495.55-98.35-729-193.55
		c-234.851-95.796-456.454-221.302-659.39-373.45C1126.23,3944.321,931.9,3771,810,3554.621
		c-65.69-116.62-104.13-244.42-112.17-378.14c-8.59-142.83,12.88-285.67,44.3-424.67c54.93-243,134.57-492.73,294.63-688.44
		c19.62-24,40.45-46.94,62.26-69c9.19-9.28-5.14-23.63-14.34-14.34V1980.07z"/>
	<path style="fill:#B4BBAF;" d="M1098.15,3615.84c20.92,212.09,86.09,418.24,187.87,605.34c101.7,186.95,239.4,354.8,403.83,490
		c168.26,138.34,363.74,241,574,298.36c217.9,59.43,447.8,71.42,671.11,38.93s440.47-110.36,631.1-231.32
		c24.2-15.333,47.947-31.376,71.24-48.13c10.52-7.53,0.4-25.12-10.24-17.51c-180.83,129.36-388.78,217.46-606.51,261.6
		c-219.58,44.51-448.77,44.26-667.91-2.82c-211.25-45.397-410.43-135.204-584.32-263.46c-170-125.41-314.57-285.3-424.37-465.66
		c-108.71-178.59-183.64-377.8-215.46-584.63c-4.12-26.8-7.42-53.72-10.08-80.7c-1.27-12.87-21.56-13-20.28,0L1098.15,3615.84z"/>
	<path style="fill:#B4BBAF;" d="M1219.66,1338.19c52.64-349.79,263.32-658,542.17-869.48C2078,229,2472.77,125.48,2865.89,125.49
		c238.54,0,476,36.38,705.94,99c12.6,3.43,18-16.12,5.39-19.55C3166.07,93,2722.55,63,2308.61,178.28
		c-352.76,98.27-672.23,309.1-884.74,609.54c-114.57,162-194.18,348.41-223.76,545c-1.93,12.76,17.61,18.27,19.55,5.39
		L1219.66,1338.19z"/>
	<path style="fill:#B4BBAF;" d="M3335.9,364.69c269.44-50.58,548.24-46.67,816.64,8.71c268.15,55.33,525.82,161.46,753.15,314.36
		C5021.84,765.88,5132,856.55,5217,968.68c86.21,113.81,139.88,247.85,173.51,385.79c67,274.85,72.65,568.11,32.76,847.45
		c-39.71,278.13-127.4,549.55-260.22,797.23c-16.52,30.8-33.72,61.213-51.6,91.24c-6.68,11.24,10.84,21.46,17.5,10.23
		c146.8-247.24,248.17-520.72,299.36-803.62c50.71-280.21,53.59-570.46,2.34-850.84c-25.9-141.67-68.27-282.34-142-406.92
		c-70.86-119.77-170.6-218.75-280.5-302.92c-221.51-169.68-481.15-290.57-751.09-359.59c-267.88-68.49-548.75-86-822.8-48.48
		c-34.72,4.753-69.303,10.383-103.75,16.89C3317.699,347.54,3323.119,367.09,3335.9,364.69L3335.9,364.69z"/>
	<path style="fill:#B4BBAF;" d="M4706.4,1313.74c276.64-28.28,532.61,137,683.46,359.23c147.06,216.69,216.34,484.52,237.7,743.14
		c19.53,236.57-4.05,475.93-65.37,705.08c-61.829,231.104-161.318,450.439-294.47,649.19c-133.22,198.53-300.52,375-495.07,514.37
		c-23.86,17.093-48.11,33.62-72.75,49.58c-10.9,7.09-0.75,24.65,10.23,17.51c203.91-132.53,381-303.27,524.64-499.29
		c143.81-196.27,253.74-417.3,325.12-649.85c71.54-233.09,104.29-478.7,92.19-722.38c-12.86-258.83-72.69-526.29-203.54-752
		c-134.56-232.08-366.06-420.1-642.05-437.1c-33.368-1.99-66.842-1.25-100.09,2.21c-12.86,1.31-13,21.6,0,20.28L4706.4,1313.74z"/>
	<path style="fill:#B4BBAF;" d="M5893.31,2648c-7.59,350-179.85,676.56-413.71,929.48c-249.21,269.53-565.14,464.8-881.75,644.89
		c-186.44,106-377.82,207.7-586.6,262c-12.62,3.28-7.27,22.85,5.39,19.55c187.49-48.78,361.7-135.59,530.17-229.52
		c164.9-91.94,328.31-187.59,484.44-293.89c296.4-201.79,568.92-450.42,734.28-773.38c88.76-173.34,143.82-363.83,148.06-559.15
		c0.28-13.05-20-13.05-20.28,0L5893.31,2648z"/>
	<path style="fill:#B4BBAF;" d="M744.9,3767.63c192,304.94,463.16,558.17,779.35,730.84c343.93,187.8,737.62,273.89,1128.64,250.76
		c228.84-13.53,455.05-63.79,667.58-149.81c11.94-4.83,6.72-24.45-5.39-19.55c-375.07,151.8-793,191.65-1190.16,114.3
		c-360.18-70.14-697.77-238.92-973.24-480.92c-150.76-132.44-282.34-286-389.27-455.86C755.47,3746.39,737.92,3756.54,744.9,3767.63
		L744.9,3767.63z"/>
	<path style="fill:#B4BBAF;" d="M5328.69,3054.76c87.75,60.5,94.05,182,90.23,278.66c-4.489,110.663-19.622,220.637-45.19,328.4
		c-50.92,215.5-141.89,421.06-266.15,604.3c-126.25,186.17-287.53,348.81-474.87,473.59c-192,127.86-409.1,216.51-634.93,262.79
		c-226.86,46.5-463.15,50.05-690.81,6.82c-28-5.333-55.873-11.353-83.62-18.06c-12.68-3.05-18.1,16.5-5.39,19.55
		c230.3,55.4,470.46,63.12,704.26,26c234.66-37.29,462.58-120,665.3-244.16c195-119.43,364.28-277.73,499.34-462.06
		c135.289-184.79,235.031-393.129,294.14-614.39c29.287-109.77,47.933-222.105,55.68-335.45c6.61-97.8,11.06-213.27-49.48-296.81
		c-13.288-18.218-29.612-34.012-48.26-46.69c-10.77-7.42-20.92,10.14-10.23,17.51L5328.69,3054.76z"/>
	<path style="fill:#B4BBAF;" d="M1486.19,1230c-197,43.67-363.41,171.46-483.3,330.56C863.88,1745,792.43,1970,751.37,2194.88
		c-21.78,119.23-36.06,239.87-47.52,360.48c-12,126.35-19.3,253.43-14.75,380.37c8.07,225,55.08,452.45,177,644.63
		c102.7,161.81,254.9,298.44,440.95,354.09c23.434,6.956,47.238,12.602,71.3,16.91c12.76,2.31,18.23-17.23,5.39-19.56
		C1191.17,3897,1028,3774,915.4,3617.15C787.2,3438.68,729.15,3224,713.23,3006.87c-17.54-239.12,7.17-483.41,43.21-719.84
		c34.23-224.53,91.9-451.77,214.9-645.4c119.09-187.48,299.65-343.2,520.25-392.1c12.73-2.82,7.34-22.37-5.4-19.55L1486.19,1230z"/>
	<path style="fill:#B4BBAF;" d="M4150.36,531.41c120.62-21.94,235.94,26.22,334.19,93c105.06,71.41,194.95,163.16,286.28,250.74
		c191.25,183.39,380.13,371,542.51,581c158,204.31,290,431.48,366,679.38c37.17,121.39,60.53,247.15,65.49,374.12
		c5.12,131-10.12,261.94-40.11,389.44c-61.09,259.73-178.71,501.81-300.6,737.61c-15.12,29.253-30.313,58.463-45.58,87.63
		c-6,11.56,11.46,21.82,17.51,10.24c125.58-240.44,251.77-484.1,326.37-746.12c36.52-128.29,60-260.75,63.29-394.28
		c3.18-127.85-12.65-255.87-43.48-379.89c-63.27-254.54-187.78-490.8-341.52-702c-159.89-219.62-350.25-414.57-545.15-603
		c-93.86-90.75-186.23-185.35-289.73-265.27c-91.35-70.54-197.9-132.17-315.83-138.2c-28.53-1.46-56.92,0.93-85,6
		c-12.82,2.33-7.39,21.88,5.39,19.55L4150.36,531.41z"/>
	<path style="fill:#B4BBAF;" d="M2240.67,4371.31c-14.05,190.53,104.16,356.11,250.64,465.68
		c165.88,124.09,375.85,182.77,580.32,197.55c445.53,32.22,873.72-147.45,1222.7-413.39c194.59-148.28,368.4-321.7,530-504.91
		c8.61-9.76-5.68-24.15-14.34-14.34c-278.55,315.83-599.93,610.34-991.22,778.41c-200.17,86-417.61,136.11-635.83,137.56
		c-207.44,1.38-424.92-40.78-605-147.47c-175.34-103.89-332.93-283-317-499.09c1-13-19.33-13-20.28,0H2240.67z"/>
	<path style="fill:#B4BBAF;" d="M1767,770.05c372-234.88,793.46-413.14,1234.26-457.59c215-21.68,433.75-9.85,643.08,45.41
		c108.84,28.73,216.75,67.41,314.4,124c100.5,58.22,182.79,138.23,252.49,230.57c79.54,105.38,147.33,220.26,214.49,333.75
		c70.92,119.873,138.383,241.71,202.39,365.51c6,11.6,23.51,1.35,17.51-10.23c-59.293-114.553-121.534-227.503-186.72-338.85
		c-61.42-104.8-124-209.65-193.37-309.46C4202.21,662,4130.2,576.24,4040,510.52c-92-67-198.1-112.58-305.89-147.43
		c-422.45-136.59-880.11-87.36-1293.9,56.14c-240.07,83.26-468.8,197.77-683.49,333.31c-11,7-0.84,24.51,10.24,17.51L1767,770.05z"
		/>
	<path style="fill:#B4BBAF;" d="M2270.6,537.58c193.3-150.67,428.27-231.84,665.4-283.14c120-26,241.48-44.81,363.05-61.95
		c134.64-19,269.55-38.49,405.26-47.88c138.06-9.54,278.08-8,414,20.48c117.67,24.65,229.59,70.3,332.27,132.64
		c201.61,122.39,363.73,302.17,488.3,500.75c142.11,226.55,239.49,477,330.84,727.3c11.333,31.027,22.606,62.083,33.82,93.17
		c4.41,12.18,24,6.93,19.55-5.39c-92.12-254.57-185-511-319.72-746.82C4884.059,658,4729.559,466.58,4532.119,327
		c-95.22-67.25-200.12-121.31-311.46-156.25c-132-41.42-271.44-54.07-409.3-51.31c-140.46,2.81-280,20.92-419,39.87
		c-125.54,17.1-251.12,34.53-375.64,58.14c-240.84,45.66-482.84,115.63-688.38,253.43c-24.67,16.54-48.61,34.1-72,52.36
		c-10.28,8,4.16,22.27,14.34,14.34L2270.6,537.58z"/>
	<path style="fill:#B4BBAF;" d="M4063.07,4355.6c66.66,93.75,174.39,147.6,286.91,162.38c134.44,17.66,269.61-21.13,391.22-75.92
		c215.14-96.94,403.42-250.41,545.92-438.09c79.919-105.344,144.667-221.378,192.35-344.71c4.71-12.18-14.89-17.45-19.56-5.39
		c-81.11,209.62-214,397.73-382.44,546.35c-84.583,74.722-177.934,138.886-278,191.08c-114.93,59.84-241.69,108-372.7,110.53
		s-268.24-46.84-346.2-156.46C4073.07,4334.82,4055.48,4344.94,4063.07,4355.6z"/>
	<path style="fill:#B4BBAF;" d="M1788.2,4342c38.93,48.11,58.6,107.11,77.53,165.14c16.85,51.69,34.87,102.47,60.79,150.42
		c50.26,93,122.25,173.25,205.14,238.37c185.7,145.89,415.09,211.82,646.75,237.78c152.28,17.06,305.73,18.22,458.78,19.23
		c13,0.09,13.07-20.19,0-20.28c-262.27-1.73-531.47-3.27-782.87-87.58c-200.51-67.24-392.05-193.74-500.08-379.54
		c-31.27-53.78-51.75-111.17-71-170.06c-19.48-59.58-40.8-118.51-80.69-167.81c-8.21-10.15-22.48,4.27-14.34,14.33H1788.2z"/>
	<path style="fill:#B4BBAF;" d="M2985.09,327.63c26.47,2.38,37.88-32.08,25.17-51.86c-21.19-33-79.72-18.19-110.66-15.42
		c-105.62,9.467-210.89,22.16-315.81,38.08c-213.055,32.259-423.909,77.679-631.35,136c-116.04,32.593-230.853,69.2-344.44,109.82
		c-12.2,4.36-6.94,24,5.39,19.56C1970,436.51,2340.31,347.64,2716,300.4c53.44-6.72,106.97-12.607,160.59-17.66
		c24.83-2.34,49.76-5.16,74.66-6.45c10.95-0.56,23.64-1.3,33.72,3.86c8.68,4.43,17.73,28.79,0.09,27.2c-13-1.17-12.92,19.11,0,20.28
		L2985.09,327.63z"/>
</g>
<path style="fill:#434C3C;" d="M5816.77,3417c0,0,12.44-190.07,161.87-341.79s269.73-195.24,286.62-341s68.7,408.28-46.69,488.82
	S5906.75,3276.05,5816.77,3417L5816.77,3417z"/>
<path style="fill:#434C3C;" d="M648.28,3520.37c0,0-79.59-151.78-228.54-252.84s-239.09-118.88-304.61-234.19
	s112.53,339.78,213.69,388.23S539.82,3419.46,648.28,3520.37z"/>
<path style="fill:#AFBBB2;" d="M257.5,2668c0,0-24.61,123.07,16.41,192.8s110.76,98.46,143.58,135.38s-41-151.78-73.84-188.7
	S245.19,2721.34,257.5,2668L257.5,2668z"/>
<path style="fill:#AFBBB2;" d="M6030.14,2482.61c0,0,72.85,124.46,54.41,215.59s-83.43,148.44-105.25,200.85
	s-12.3-180.25,9.52-232.66S6063.49,2535.93,6030.14,2482.61L6030.14,2482.61z"/>
<path style="fill:#4C5B48;" d="M6036.18,5149.82c-29.27-24.7-68.1-35.82-106.34-37.9c-33.61-1.83-67.15,2.79-100.41,8.35
	c-67.766-14.509-136.313-25.09-205.3-31.69c23.75-3.56,46.77-9.52,65.33-20.44c26.48-15.58,46.52-29.3,53.69-45.66
	s7.92-36.25-1.32-51.54s-27.47-24-45.44-25.12s-35.77,4.4-52.08,12c-51.41,24-91.7,70.44-108.74,124.49
	c-65.683-3.08-131.484-2.64-197.12,1.32c10.57-6.57,19.85-13.7,25.53-21.74c15.66-22.2,32.56-52.9,27.15-79.53
	c-2.91-14.3-10.82-28.59-24.17-34.47c-14.64-6.45-31.76-1.33-46,6c-51.27,26.22-85.63,81.87-87.94,139.18
	c-78.194,9.24-155.714,23.496-232.08,42.68c19.9-17.78,46.46-46.53,50.2-95.43c1.2-15.7,4.85-34.14-7.3-44.18
	c-12.72-10.51-32-4.56-46.19,3.9c-54,32.26-86.29,96.81-81.87,159.28c-78.656,23.858-155.558,53.155-230.15,87.68l-8.82,78.49
	c67.8-37.907,138.482-70.411,211.39-97.21c33.32,38.2,83.71,61.55,134.53,60.52c15.47-0.31,32.92-4,41-17.18
	c9.45-15.48,1-35.9-10.84-49.6c-12.797-14.62-29.187-25.65-47.55-32c60.147-17.139,121.159-31.082,182.78-41.77
	c17.33,21.42,35,42.67,55.75,60.78c22.75,19.87,49.6,36,79.24,41.81c14.62,2.89,31.39,2.67,42.44-7.33
	c11.25-10.18,13-27.27,11.11-42.33c-3.25-26-26.77-53-65.58-70.16c55.06-5.96,110.273-9.724,165.64-11.29
	c18.995,47.769,53.746,87.611,98.49,112.92c9.7,5.44,20,10.22,31.05,11.64s23-0.92,31.28-8.29c11.49-10.18,16.83-23.24,16.12-38.57
	c-0.94-20.67-12.78-47.12-29.59-59.18c-7.44-5.35-23.13-13.16-38.77-19.25c74,1.21,148,5.79,221.77,13.1
	c11.25,42.77,40.69,80.55,79.62,101.61c41.32,22.35,92.55,25.46,136.26,8.27c16-6.28,32-16.45,37.57-32.68
	C6067.831,5187.709,6053.581,5164.509,6036.18,5149.82L6036.18,5149.82z"/>
<path style="fill:#4C5B48;" d="M1592,5290.24l-7.71-56.1c-65.742-24.844-132.9-45.764-201.12-62.65
	c3.87-44.65-24.35-90.78-71.54-113.84c-12.39-6-29.24-10.3-40.36-2.78c-10.62,7.17-7.43,20.34-6.38,31.57
	c3.27,34.94,26.48,55.49,43.87,68.2c-67.035-13.758-134.754-23.942-202.87-30.51c-2-41-32-80.73-76.78-99.47
	c-12.45-5.2-27.41-8.86-40.2-4.25c-11.66,4.2-18.58,14.42-21.12,24.63c-4.73,19,10,41,23.73,56.84c5,5.75,13.07,10.85,22.3,15.54
	c-57.35-2.83-114.87-3.14-172.25-0.94c-14.89-38.63-50.1-71.83-95-89c-14.26-5.44-29.81-9.37-45.51-8.58s-31.58,6.93-39.71,17.95
	s-7.35,25.15-1.14,36.85s23.78,21.5,46.92,32.63c16.22,7.81,36.34,12.07,57.09,14.61c-48.78,3.82-97.267,9.487-145.46,17
	c-24.08-18.06-57.65-26.13-92-21.62c-39.14,5.14-78.53,26.52-104.77,56.88c-9.57,11.09-17.8,24.61-15.89,37
	c2.54,16.49,21.8,24.17,40.25,25.23c31,1.78,64.14-9.09,93.45-25.2s55.47-37.27,81.22-58.4l1.68-1.33
	c58.36-4.38,116.84-7.013,175.44-7.9c-13.67,4.36-27.38,9.94-33.88,13.76c-14.69,8.62-25,27.53-25.86,42.3
	c-0.61,10.95,4.05,20.29,14.09,27.56c7.27,5.27,17.69,6.93,27.33,5.92s18.66-4.43,27.14-8.32c38.81-17.81,69.75-46.83,86.06-80.7
	c48.353,1.18,96.603,3.87,144.75,8.07c-33.92,12.25-54.47,31.53-57.31,50.15c-1.63,10.76-0.12,23,9.71,30.25
	c9.66,7.14,24.31,7.3,37.09,5.24c25.9-4.18,49.36-15.68,69.24-29.89c18.1-12.92,33.54-28.09,48.66-43.38
	c53.88,7.68,107.3,17.57,159.84,29.86c-16,4.53-30.54,12.37-41.61,22.81c-10.39,9.79-17.73,24.39-9.48,35.44
	c7,9.45,22.3,12.07,35.82,12.29c44.38,0.74,88.4-15.94,117.51-43.22C1470.341,5239.662,1532.072,5262.883,1592,5290.24L1592,5290.24
	z"/>
<path style="fill:#A7C28D;" d="M6252,3774.63c-166.39,224.92-281,496.26-502.57,667.12c-170.46,131.47-385.32,188.06-593.83,241.62
	l-159.11-76.13c267.21-445,742.71-758.65,1256.93-829.18L6252,3774.63z"/>
<path style="fill:#2F3B2A;" d="M5566.71,3113.11c55.54,370.21,19.7,756.58-123.3,1102.55s-395.62,649.24-721.09,834.22
	c-162.8,92.54-346.33,169.95-532.6,150.63s-428.36-115.61-489-292.78l-7.07-42.79c100.31-517.46,484.12-970.66,978-1154.8
	c176.86-65.95,365.69-99.51,536.19-180.5s328.45-213.4,353.94-400.42L5566.71,3113.11z"/>
<path style="fill:#A7C28D;" d="M286.19,3815.76c160.1,212.89,327.83,468.06,541,629.79c164,124.45,370.74,178,571.35,228.71
	l153.09-72.06C1294.53,4181,766.94,3858,272.18,3791.23L286.19,3815.76z"/>
<path style="fill:#2F3B2A;" d="M820,3077.87c-31.12,373.07,30,756.25,195.4,1092.09s437.37,621.88,774.27,785.1
	c168.53,81.65,356.75,146.85,541.34,115.35s419.85-143.48,468.74-324.25L2804,4703c-134.05-509.76-545-857.72-1051.67-1047.57
	c-176.75-66.23-371.43-115.85-546.88-185.47S863.68,3278.57,826,3093.63L820,3077.87z"/>
<path style="fill:#C7DDCD;" d="M812.61,3080.92c56.46,278.24,200.75,532.39,413.76,720.09c217.67,191.8,480.7,323.47,696.75,517.32
	c115.69,103.79,216.94,225.09,278.12,369.14c2.54,6,11.28,0.83,8.75-5.11c-107.48-253.09-331.21-428.27-551.83-579.53
	c-242.23-166.08-496.05-323.66-656.31-577.52c-86.345-136.958-147.148-288.433-179.46-447.08
	C821.09,3071.84,811.32,3074.54,812.61,3080.92L812.61,3080.92z"/>
<path style="fill:#C7DDCD;" d="M2217.93,3926c-80.641,194.622-112.2,406.083-91.9,615.77c0.63,6.43,10.78,6.5,10.14,0
	c-20.232-208.774,11.201-419.319,91.53-613.08C2230.2,3922.69,2220.4,3920.05,2217.93,3926z"/>
<path style="fill:#C7DDCD;" d="M1660,3655.14c-33.787,143.47-41.912,291.788-24,438.09c0.78,6.39,10.93,6.47,10.13,0
	c-17.89-145.387-9.91-292.793,23.57-435.4c1.49-6.35-8.28-9-9.77-2.69L1660,3655.14z"/>
<path style="fill:#C7DDCD;" d="M1073.57,4146.07c246.038-9.117,492.172,15.287,731.63,72.54c6.34,1.51,9-8.26,2.69-9.78
	c-240.335-57.488-487.373-82.013-734.32-72.9C1067.07,4136.17,1067.03,4146.31,1073.57,4146.07L1073.57,4146.07z"/>
<path style="fill:#C7DDCD;" d="M1607.11,4653c180.63-82.55,391.43-87.12,575.7-13.31c6.06,2.43,8.69-7.38,2.69-9.78
	c-186.89-74.86-400.48-69.31-583.51,14.34C1596.06,4646.96,1601.21,4655.7,1607.11,4653z"/>
<path style="fill:#C7DDCD;" d="M1009.37,3378.19c69.06,187.93,178.24,355.93,315,501.61c4.47,4.77,11.63-2.41,7.16-7.17
	c-135.53-144.37-244-310.87-312.39-497.14c-2.23-6.07-12-3.44-9.78,2.7L1009.37,3378.19z"/>
<path style="fill:#C7DDCD;" d="M867.93,3586.45c105.15,87.14,225.88,152.64,350.88,206.56c5.93,2.56,11.1-6.18,5.12-8.76
	c-124.14-53.54-244.39-118.42-348.83-205c-5-4.14-12.2,3-7.17,7.17L867.93,3586.45z"/>
<path style="fill:#657F38;" d="M453.16,4527.58c225.61,113.65,408.65,280.76,583.49,464.49s349.63,373.17,566.79,502.59
	s487.69,192.37,724.23,103.89c100.54-37.6,195.56-106.71,235.87-207.29l-37.61-79.83c-262.1-288.25-591.72-513.09-954-650.75
	S815.16,4472.74,430.3,4515.17L453.16,4527.58z"/>
<path style="fill:#C7DDCD;" d="M4364.14,4556.59c277.26-50.75,578.57-81.35,838.09,53.58c5.78,3,10.91-5.74,5.12-8.76
	c-262.14-136.28-565.74-105.88-845.9-54.6C4355.04,4547.99,4357.75,4557.76,4364.14,4556.59z"/>
<path style="fill:#C7DDCD;" d="M5560.75,3117c6.68,275.44-123.42,545-302.32,748.56c-192.07,218.5-440.1,376.87-680.77,535.92
	c-151.107,99.874-302.223,199.743-453.35,299.61c-5.42,3.58-0.35,12.37,5.12,8.76l413-273c126-83.29,253.09-165.37,374.91-254.8
	c228.14-167.48,434.92-365.8,555.13-626.17c63.36-137.24,102-287.08,98.37-438.9c-0.16-6.51-10.3-6.54-10.14,0L5560.75,3117z"/>
<path style="fill:#C7DDCD;" d="M5033.26,4091.77c148.29-81.76,312-122.88,481-126c6.52-0.12,6.54-10.26,0-10.14
	c-170.77,3.16-336.33,44.79-486.13,127.38c-5.71,3.15-0.61,11.91,5.12,8.76H5033.26z"/>
<path style="fill:#C7DDCD;" d="M4758.62,3670.8c27.85,216,10.45,434.5-52.85,643c-1.9,6.25,7.89,8.93,9.78,2.69
	c63.53-209.29,81.17-428.82,53.21-645.7c-0.82-6.38-11-6.46-10.14,0L4758.62,3670.8z"/>
<path style="fill:#C7DDCD;" d="M4237.22,3965.91c12.7,222.55,7,446.16-12.85,668.11c-0.59,6.5,9.56,6.46,10.14,0
	c19.88-222,25.55-445.56,12.84-668.11C4246.98,3959.43,4236.84,3959.39,4237.22,3965.91L4237.22,3965.91z"/>
<path style="fill:#657F38;" d="M5895.92,4607.77c-225.23,101.38-410.82,256.06-589,427.11s-356.56,347.62-574.12,464.57
	s-484.86,167.65-713.1,73.23c-97-40.13-187.43-110.51-223.07-209.26l39.86-75.77c267.61-268.81,598.93-473.78,958.93-593.25
	s748.13-153.25,1123.37-97.77L5895.92,4607.77z"/>
<path style="fill:#559877;" d="M2420.13,4474.13c-22.22-20.567-44.253-41.33-66.1-62.29c-44.84-43-88.877-86.817-132.11-131.45
	c-46.713-48.247-92.397-97.487-137.05-147.72c78.28-84.13,107.24-212.22,70.55-321.45c-6.91-20.59-17.35-42-36.8-51.66
	c-18.44-9.15-41.49-5.18-58.63,6.23s-29.06,29.21-37.74,47.87c-20.38,43.82-24.82,93.7-20.48,141.83
	c3.2,35.46,11,70.26,19.88,104.78c-83.193-97.46-162.047-198.394-236.56-302.8c80.6-84,110.82-214,73.66-324.69
	c-6.92-20.59-17.35-42-36.81-51.66c-18.44-9.15-41.49-5.18-58.62,6.23s-29.07,29.21-37.75,47.87
	c-20.38,43.82-24.82,93.7-20.47,141.83c2.65,29.44,8.46,58.43,15.45,87.19c-30.147-44.893-59.42-90.363-87.82-136.41
	c-33.67-54.77-67.34-110.75-99.54-167.78c85.56-83.72,118.44-217.77,80.27-331.4c-6.91-20.59-17.35-42-36.81-51.67
	c-18.44-9.14-41.48-5.17-58.62,6.23s-29.06,29.21-37.74,47.88c-20.39,43.81-24.82,93.7-20.48,141.82
	c2.23,24.71,6.68,49.1,12.19,73.3c-29-57.13-55.66-115.16-78.57-174c-12.91-33.16-5.45-53.14,0.66-86.59
	c7.7-42.17,10.86-86.19,12.85-129c3.92-84.53-3.48-171.39-40.22-248.76c-15.06-31.73-38.3-63.77-72.68-70.95
	c-41.29-8.63-81.24,22.73-102.61,59.1c-41.94,71.38-35.74,163.38-2.32,239.12c19.46,44.08,47.25,83.85,78.31,120.48
	c23.38,27.57,56.88,51.38,77.61,80.06c21.63,29.92,32.35,76,47.39,109.93c22.6,50.96,46.337,101.39,71.21,151.29
	c-23.31-23.79-47.47-46.71-74.2-66.51c-38.83-28.77-83.73-50.95-131.75-56.36c-20.45-2.3-41.87-1.39-60.53,7.3
	s-34,26.31-35.83,46.81c-1.89,21.64,11,41.7,24.94,58.33c77.3,91.92,209.23,133.61,325.42,103.82
	c48.78,91.813,101.22,181.547,157.32,269.2c-19.309-13.516-39.471-25.772-60.36-36.69c-43-22.06-90.9-36.65-139.16-34.18
	c-20.55,1-41.54,5.43-58.53,17s-29.32,31.49-27.75,52c1.65,21.65,17.6,39.36,34.1,53.49c87.08,74.6,215.86,95.9,322.9,55.66
	c3.34,4.84,6.6,9.74,10,14.57c70.14,101.013,144.987,198.533,224.54,292.56c-27-15.47-54.48-29.84-83.43-41
	c-45.09-17.4-94.27-26.84-142-19.29c-20.33,3.22-40.73,9.8-56.4,23.14s-25.82,34.41-22.1,54.66c3.93,21.36,21.66,37.28,39.56,49.58
	c97.54,67.08,233.25,73,336.79,16c1.74,2,3.45,3.94,5.2,5.88c54.3,60.327,110.473,118.9,168.52,175.72
	c29.013,28.38,58.47,56.293,88.37,83.74c25.68,23.56,56.2,62.13,87.33,77.69l89.54,34
	C2463.89,4525.721,2437.67,4490.381,2420.13,4474.13L2420.13,4474.13z"/>
<path style="fill:#559877;" d="M5234.12,3234.36c-17.16-9.38-37.41-11.56-56.94-10.62c-45.86,2.19-89.78,20.48-128.35,45.38
	c-26.55,17.14-50.86,37.39-74.41,58.52c26.567-45.807,52.15-92.167,76.75-139.08c16.34-31.24,29.31-74.28,51.65-101.33
	c21.41-25.91,54.63-46.45,78.47-71.15c31.69-32.83,60.47-68.84,81.61-109.44c36.31-69.76,47.81-156.61,12.41-226.84
	c-18-35.79-54-68-93.66-62.3c-33,4.71-57,33.66-73.24,62.82c-39.56,71.11-51.89,153-53.33,233.38c-0.73,40.68-0.43,82.6,4.29,123.06
	c3.75,32.08,9.61,51.48-4.67,82.13c-25.3,54.34-54.13,107.73-85.11,160.12c6.7-22.61,12.41-45.45,16-68.74
	c7.06-45.37,5.9-92.93-10.74-135.71c-7.09-18.23-17.31-35.84-32.86-47.7s-37.16-17-55.2-9.48c-19,8-30.24,27.63-38,46.72
	c-43.13,105.4-20.15,234.49,55.84,319.1c-34,52.1-69.35,103.11-104.61,153c-29.68,41.96-60.213,83.293-91.6,124
	c8.39-26.83,15.66-54,20-81.71c7.06-45.36,5.9-92.93-10.74-135.71c-7.09-18.23-17.31-35.84-32.86-47.7s-37.16-17-55.2-9.48
	c-19,8-30.24,27.63-38.05,46.72c-42,102.63-21.29,227.72,50,312.33c-76.853,94.38-157.78,185.25-242.78,272.61
	c10.57-32.18,20.05-64.7,25.25-98.12c7.06-45.37,5.9-92.93-10.75-135.71c-7.09-18.23-17.31-35.84-32.86-47.7s-37.15-17-55.19-9.49
	c-19,8-30.24,27.64-38,46.73c-41.46,101.31-21.83,224.52,47.24,309.06c-45.406,44.853-91.74,88.747-139,131.68
	c-43.7,39.673-88.126,78.523-133.28,116.55c-22,18.533-44.157,36.867-66.47,55c-17.62,14.33-44.65,46.23-66.17,52.87l87-26.81
	c30.46-12.85,61.76-47.54,87.54-68.31c30-24.187,59.633-48.854,88.9-74c58.467-50.267,115.3-102.363,170.5-156.29
	c1.78-1.73,3.52-3.51,5.3-5.25c94.68,60.3,223.7,63,320.27,5.37c17.72-10.58,35.5-24.59,40.53-44.6c4.77-19-3.56-39.56-17.6-53.16
	s-33-21.09-52.06-25.39c-44.79-10.08-92-4.13-135.8,9.61c-28.14,8.83-55.11,20.77-81.6,33.79c80.974-84.2,157.86-172.1,230.66-263.7
	c3.48-4.37,6.87-8.82,10.33-13.21c99,44.7,222.41,32.37,309.53-33c16.5-12.39,32.71-28.2,35.6-48.63c2.73-19.36-7.73-39-23.13-51
	s-35-17.48-54.46-19.73c-45.6-5.29-91.91,5.61-134,23.9c-20.468,9.074-40.329,19.459-59.46,31.09
	c58.46-79.58,113.65-161.423,165.57-245.53c108.34,35.34,236,3.88,314.86-78.55c14.26-14.9,27.68-33.14,27.21-53.76
	C5264.779,3261.381,5251.27,3243.741,5234.12,3234.36L5234.12,3234.36z"/>
<g>
	<path style="fill:#444545;" d="M4087.21,5353.24c250.89-43.9,478.33-164.3,694.62-293.81c225.13-134.79,444.86-278.59,693-368.69
		c139.67-50.7,285.89-84,434.84-87.24c6.52-0.14,6.54-10.28,0-10.14c-260.27,5.59-508.5,101.57-735.79,222.34
		c-229.67,122-441.61,274.9-676.09,388.35c-131.38,63.56-269.18,114.2-413.29,139.42c-6.42,1.12-3.7,10.89,2.69,9.77
		L4087.21,5353.24z"/>
	<path style="fill:#444545;" d="M4363.58,5277.82c62.18,10.49,120.14,44.35,170.77,80.57c52,37.21,103.9,82.73,135.73,139
		c3.21,5.68,12,0.58,8.75-5.11c-31.8-56.24-82.87-101.52-134.5-139.15c-52.4-38.2-113.21-74.17-178.06-85.11
		c-6.38-1.07-9.12,8.7-2.69,9.78V5277.82z"/>
	<path style="fill:#444545;" d="M4757.28,5079.3c55.94,3.21,111.45,19.6,162.5,42.21c47.51,21,95.25,48.71,128.36,89.6
		c4.11,5.07,11.24-2.14,7.17-7.17c-34.85-43-85.81-72-136-93.61c-51.2-22.07-106.22-38-162.07-41.17c-6.52-0.38-6.5,9.76,0,10.14
		L4757.28,5079.3z"/>
	<path style="fill:#444545;" d="M5082.33,4879.9c118.267-36.839,243.461-45.77,365.76-26.09c6.38,1,9.13-8.74,2.69-9.78
		c-124.067-20.111-251.107-11.18-371.14,26.09C5073.419,4872.05,5076.07,4881.85,5082.33,4879.9L5082.33,4879.9z"/>
	<path style="fill:#444545;" d="M5342.67,4596.2c-23,72.1-64,134.91-115.82,189.59c-4.49,4.73,2.67,11.91,7.17,7.16
		c53-55.9,94.92-120.34,118.42-194.05C5354.44,4592.67,5344.64,4590,5342.67,4596.2z"/>
	<path style="fill:#444545;" d="M4578.41,4801.21c-28.05,121.76-44.69,250.08-29.33,374.78c0.78,6.39,10.93,6.47,10.14,0
		c-15.26-123.88,1.1-251.14,29-372.08c1.46-6.35-8.31-9.06-9.78-2.7L4578.41,4801.21z"/>
	<path style="fill:#444545;" d="M2401.92,5476.05c-292.35-80.6-538.76-264.94-777.28-444.81c-105.17-79.3-211.89-154-326.75-218.81
		c-124.913-70.646-255.093-131.543-389.38-182.15c-154.13-57.9-314.35-101.69-478.21-120.18c-6.48-0.73-6.42,9.42,0,10.14
		c292.87,33,577.11,144,834.07,285.14c114.71,63,222.79,134.83,327.21,213.55c118.47,89.31,236.7,179.34,361.88,259.18
		c138.75,88.5,286.58,163.83,445.76,207.71C2405.52,5487.56,2408.22,5477.82,2401.92,5476.05L2401.92,5476.05z"/>
	<path style="fill:#444545;" d="M2130,5374.09c-65.16,4.65-128.46,33.87-184.11,66.45c-56,32.75-112.05,73.67-149.61,127.35
		c-3.75,5.36,5,10.43,8.76,5.12c36.54-52.24,91.57-91.87,146-123.71c54-31.64,115.64-60.55,179-65.07c6.47-0.46,6.52-10.61,0-10.14
		L2130,5374.09z"/>
	<path style="fill:#444545;" d="M1758.47,5138.76c-57.34-2.21-115.48,9-169.71,27.09c-50.52,16.82-102,40.43-139.73,78.91
		c-4.57,4.66,2.59,11.83,7.17,7.17c37.88-38.58,90.16-61.86,140.91-78.15c51.83-16.64,106.78-27,161.36-24.88
		C1764.99,5149.15,1764.98,5139.01,1758.47,5138.76L1758.47,5138.76z"/>
	<path style="fill:#444545;" d="M1456.65,4909.67c-115.503-48.441-240.659-69.46-365.65-61.41c-6.48,0.42-6.53,10.56,0,10.14
		c124.093-7.991,248.348,12.906,363,61.05c6,2.52,8.63-7.29,2.69-9.78H1456.65z"/>
	<path style="fill:#444545;" d="M1211.61,4614.21c16.38,75.7,52.09,143.6,99.54,204.39c4,5.13,11.14-2.09,7.17-7.17
		c-46.37-59.4-80.93-126-96.93-199.91C1220.01,4605.15,1210.23,4607.84,1211.61,4614.21z"/>
	<path style="fill:#444545;" d="M1952.57,4890.05c16.15,123,20.49,251.38-6.53,373.16c-1.41,6.35,8.36,9.07,9.78,2.69
		c27.23-122.73,23.17-251.89,6.89-375.85C1961.87,4883.68,1951.71,4883.59,1952.57,4890.05z"/>
</g>
<path style="fill:#E5E5E5;" d="M3236.33,1912.83l-1186-189.42c-139.6-22.3-280.68-39.4-421.75-30.24
	c-178,11.55-339.15,85.14-374.19,207.78c0,0-4.25,3-6.59,31.57s3.09,42,3.09,42c17.5,110.24,103.26,214,200.21,269.27
	s209.34,77.27,320.42,88.17c487.33,47.8,969.84-101,1439.11-240.89S3236.33,1912.83,3236.33,1912.83L3236.33,1912.83z"/>
<path style="fill:#5B8567;" d="M3678,3101.92c0,0,1.55,60.79-1.85,116.4c49.18-5.333,96.313-11.147,141.4-17.44
	c15.17-69.07,13.81-187.86,13.81-187.86s23.63,114.85,30.08,181.52c457.13-68.31,669.93-193.59,669.93-193.59
	s-87-289.49-227.13-471.7s-273.32-339.9-273.32-339.9l-1713.53,283.83c0,0-77.09,199.73-234.78,350.41s-290.83,255.8-290.83,255.8
	S2058.1,3193.15,2491,3243c34.18-68.68,55.4-157.86,55.4-157.86s6.61,91.82-4.6,163.34c25.033,2.507,50.573,4.783,76.62,6.83
	c19-57.34,31.3-160.77,31.3-160.77s3.67,102-4.6,162.74c202.528,14.204,405.901,10.996,607.88-9.59
	c151-15.37,278-14.28,403.75-27.35C3669.71,3165.41,3678,3101.92,3678,3101.92z"/>
<path style="fill:#224132;" d="M3930.75,2310.38c0,0,76,264.66,88.35,441.67c15.18,218.42-4.25,501.81-4.25,501.81
	c303.36-48.33,490.24-158.12,590.69-300.62c0,0-102.52-245.51-213.88-404.92c-115.94-166-300.11-399.52-300.11-399.52
	L3930.75,2310.38z"/>
<path style="fill:#224132;" d="M2308,2430.49c0,0-107.58,208.11-216.94,345.13c-129.71,162.5-337.78,324.25-337.78,324.25
	c168.82,67.21,251.72,100.12,424.45,121.87c0,0,123.56-183.7,203.81-344.72c83.55-167.66,191.81-417,191.81-417L2308,2430.49z"/>
<path style="fill:#383838;" d="M2953.66,3366.43c-77,57.56,275.17,185.62,275.17,185.62l294.34-107.65l90.31-98.37
	c0,0-107.44-90.66-299-90.66S3013.2,3321.94,2953.66,3366.43z"/>
<path style="fill:#224132;" d="M3156,965.27c0,0-74.76-11.68-151.85-11.68s-126.14,21-200.9,63.07
	c-74.76,42.07-283.8,348.07-370.25,404.13s-356.25,441.52-356.25,441.52s130.82,308.35,238.28,422.82s165.86,154.18,165.86,154.18
	l1350.23-151.84c0,0,172.87-158.85,221.93-345.74c24.26-92.42-122-663.34-289.67-780.24c-232.47-162.07-359.75-207.9-485.9-207.9
	C3228.44,953.59,3156,965.27,3156,965.27L3156,965.27z"/>
<path style="fill:#E1E9DF;" d="M3084.78,2991.78c0,0,64.56,136.66,61.06,234.78s-243.27,262.8-243.27,262.8
	s132.34,147.17,357,154.18s413.89-122.64,434.91-136.66s-220.75-112.13-266.3-297.84s21-357.42,21-357.42L3084.78,2991.78z"/>
<path style="fill:#A4C4B0;" d="M3408.39,3071.06c-32.73,86.66-111.17,143-192.57,127.83s-102-97-86-182.79
	s81.47-131.73,164.17-127.83C3450,2895.62,3418.79,3043.5,3408.39,3071.06L3408.39,3071.06z"/>
<ellipse transform="matrix(0.8628 -0.5056 0.5056 0.8628 -857.6005 1542.2845)" style="fill:#C0D3D7;" cx="2412.414" cy="2351.024" rx="246.6" ry="306.94"/>
<ellipse transform="matrix(0.9886 -0.1507 0.1507 0.9886 -291.4765 493.1252)" style="fill:#E0E8DD;" cx="3106.864" cy="2169.111" rx="738.19" ry="949"/>
<ellipse transform="matrix(0.5056 -0.8628 0.8628 0.5056 58.5573 4432.2349)" style="fill:#DFE7E1;" cx="3896.49" cy="2165.025" rx="326.33" ry="262.18"/>
<path style="fill:#1E5437;" d="M3165.56,2418.09c0,0,89.75,16.55,135.3,10.71s125-56.07,125-56.07s47.89-25.69,88.77-32.7
	s145.92,1.31,107.45-1.17c-0.68,0,37.85,2.34,59.57-4.67c21.1-6.81-9.34,14-56.06,17.52s-49.06,3.5-71.25,12.85
	s-24.53,15.18-24.53,15.18s0,3.5,19.86-1.17s-42,42-66.51,59.51s-77.16,64.3-113.37,66.64s-82.19-1.32-137.27-23.75
	c-39.2-16-71-63.76-71-63.76L3165.56,2418.09z"/>
<path style="fill:#1E5437;" d="M2801.53,2441.65c0,0-37.18,27.25-132.64,36.18c-45.73,4.27-134.7-24.88-134.7-24.88
	s-29.76-5.88-70.09,3.8s-133.58,58.74-99.22,41.29c0.61-0.31-33.86,17.07-56.58,19.2c-22.07,2.06,14.11,9.19,58.43-6
	s46.46-16.12,70.54-16.28s5.87-0.35,5.87-0.35s-61.51,21.8-51.39,20.24c20.16-3.1,59.34-22.13,106.3,7
	c25.6,15.91,86.13,52.32,121.86,46s93.16-21.26,139.57-58.45c36-28.87,44.58-69.36,44.58-69.36L2801.53,2441.65z"/>
<path style="fill:#1E4D54;" d="M3124.2,2197.2c0.143,6.333,5.393,11.351,11.726,11.208c1.158-0.026,2.306-0.228,3.404-0.598
	c22.21-7.58,73.62-21.91,164.25-30.75s239.84-4.68,258.53-4.68s-34.27-28-109-45.16s-146.34-25.22-207.11-24.3
	c-100.45,1.56-112.45,35.2-118.68,63.24C3124.998,2176.338,3123.95,2186.764,3124.2,2197.2L3124.2,2197.2z"/>
<path style="fill:#1E5437;" d="M2724.41,2222.55c2,7.5-2.78,14.46-9.53,13.8c-20.41-2-66.79-3.5-144,9.62s-158.51,44.57-173.92,49
	s-0.56-34,36.79-61.27c53.65-39.14,113.65-59.13,164.05-72.72c83.27-22.45,102.51,7,115.43,32.45
	C2717.986,2202.709,2721.734,2212.472,2724.41,2222.55L2724.41,2222.55z"/>
<path style="fill:#7AA58A;" d="M3029.48,2778.06c-4.768-0.013-8.886-3.341-9.9-8c-0.11-0.49-11-50.14-24.77-99.09
	c-13.71-48.75-32.17-95.08-32.36-95.54c-2.061-5.207,0.49-11.099,5.697-13.16c5.181-2.05,11.045,0.464,13.133,5.63
	c0.19,0.47,19,47.8,33,97.58c13.94,49.55,25,99.75,25.06,100.25c1.188,5.484-2.296,10.893-7.78,12.08
	c-0.7,0.151-1.414,0.229-2.13,0.23L3029.48,2778.06z"/>
<path style="fill:#7AA58A;" d="M3083.54,2937.83c-35,0-57-7.06-58.82-7.67c-5.316-1.767-8.192-7.509-6.425-12.825
	s7.509-8.192,12.825-6.425c1,0.34,86.34,27.15,191.18-31.91c103.79-58.47,116.46-105.14,116.57-105.61
	c1.328-5.403,6.748-8.739,12.17-7.49c5.407,1.223,8.809,6.587,7.61,12c-0.48,2.22-13.17,55-126.4,118.79
	C3173.65,2929.68,3121.1,2937.83,3083.54,2937.83z"/>
<path style="fill:#E1E8E3;" d="M2925.26,4979c-60.89-13.53-131.15-26.8-185.38,13.43c-41.59,30.85-55.88,92.85-18,132.57v-14.34
	c-34.2,40.65-71,86.7-66.91,143.17c2,27.69,16.59,44.26,29.34,67.37c15.82,28.67-4,61.47-2.56,92c2.13,45.6,30.3,89.32,72.64,107.44
	c44.06,18.87,94.92,9.07,130.77-21.85c9.89-8.54-4.5-22.83-14.34-14.34c-34.05,29.37-86.19,34.79-124,9.11
	c-18.94-12.86-32.87-32.6-39.94-54.25c-7.67-23.52-3.71-45,0.83-68.65c3.54-18.34,5.34-36.87-3-54.24
	c-9.69-20.23-25.27-34.42-28.73-57.65c-7.78-52.25,29-96.56,60.25-133.77c3.59-4.27,4.05-10.09,0-14.34
	c-36-37.74-8.16-92.36,32.45-112c47.61-23.08,102.08-11,151.2-0.06c12.71,2.83,18.14-16.72,5.39-19.56L2925.26,4979z"/>
<path style="fill:#B4BBAF;" d="M3598.7,3329.34c276.4,125,481.23,366.76,541.07,709c52.25,298.83,69.11,602,40.62,904
	c-20.71,219.62-52.09,444.94-161.88,636.28s-224.75,295.84-479.37,334.38l-36.1,6.19l-271.2,35.11
	c-55,7.13-110.83,14.26-165.86,7.08c0,0-105-6.33-130.71-54.22s-46.53-57.85-46.53-57.85h-353.49"/>
<path style="fill:#B4BBAF;" d="M3588.47,3346.85c121.8,55.5,231.53,134.38,319.41,235.67c92,106.05,156.24,233.89,192.19,369.29
	c22.54,84.91,34.57,172.94,45.65,260c12.22,96,20.523,192.423,24.91,289.27c8.27,187.82-0.59,375.49-23.36,562.05
	c-20.69,169.61-55.89,342-139.29,492.89c-58.33,105.54-131.85,204.79-239.12,264.3c-117.34,65.09-254.84,77.21-385.47,94.12
	L3239.82,5933c-47.14,6.1-94.66,12.76-142.32,10.75c-41.69-1.76-91.45-6-127.13-29.16c-31.19-20.21-40.07-81.35-82.87-85.55
	c-26.43-2.59-54.43,0-81,0h-271.25c-26.1,0-26.14,40.56,0,40.56h333.34c4.71,0,9.59,0.37,14.29,0c2.92-0.23,11.15,1,0.78-1.35
	c-11.42-2.6-2.89-1.37-1.83,0.65c-1.14-2.17,4.61,4.15,6.22,5.76c12.61,12.57,20.32,27.86,29.71,42.74
	c27.85,44.16,84.94,56.87,133.5,62.79c78.22,9.55,154.86-2.27,232.43-12.31c83.39-10.8,167.43-19.3,250.31-33.51
	c64.65-11.09,128.42-23.57,189.55-48.14c275.8-110.86,399.22-425,446.09-697.28c65.27-379.15,56.59-769.78-9-1148.15
	c-25.08-144.8-77.21-284.83-161.25-406c-78.68-113.43-182.27-208.07-301.65-277.31c-28.83-16.72-58.53-31.85-88.85-45.67
	c-23.58-10.74-44.21,24.2-20.47,35L3588.47,3346.85z"/>
<path style="fill:#243338;" d="M2117.54,5471.78c-3.1,107.16,81.78,290.26,180.53,332s209.3,42.32,316.51,42.29l998.53-0.33
	c108.84,0,229.58-81.15,322.57-137.7l18.1-37.38c164.69-428.27,224.9-875.79,211.85-1334.45c-5.56-195.28-28.93-394.8-115.88-569.74
	s-247.36-322.77-440.59-351.55l-12.38-2.34c-81.66,90.78-203.51,144-325.6,142.24s-242.35-58.51-321.35-151.61l-8.27,2.74
	c-176.71,55-319.07,192.15-414.49,350.72s-148.92,338.42-195.26,517.59c-100.874,390.084-172.259,787.205-213.55,1188
	L2117.54,5471.78z"/>
<path style="fill:#627F62;" d="M3257.64,4866.46c-37.9,3.34-75.49,24.1-112.9,35c-41.87,12.25-86.95,20.87-128.1,35.92
	c-144.45,52.85-129.53,149-153.79,227.27c-54.62,176.25-38.24,390-1.16,570.74c10.36,50.51,19.85,80.63,37.37,126.18l19.86,32.71
	c34.26,43.66,92,59.88,147.06,67.07s110.82,0,165.86-7.08L3503,5919.2l36.1-6.19c254.62-38.55,369.59-143.06,479.37-334.39
	s141.17-416.66,161.88-636.28c28.49-302,11.63-605.18-40.62-904c-59.84-342.23-264.67-584-541.07-709l-26.63-10.9
	c-92.8,201.15-127,426.5-163.88,644.92c-50.727,300.04-101.453,600.073-152.18,900.1"/>
<path style="fill:#B4BBAF;" d="M2957,3331.3c-169.92,91.64-325.71,208.27-432.14,371.91c-120.94,185.95-165.47,405.94-235.2,613.23
	c-71.16,211.55-183.4,405.89-269.42,611.26c-43.2,103.14-80.06,209.59-100.41,319.79c-20.4,110.49-24,228.83,16.45,335.45
	c86.32,227.69,352.93,347,584.12,290.47c25.34-6.2,14.61-45.32-10.78-39.11c-200.26,49-432.77-46.49-523.15-236.18
	c-47.36-99.4-48.25-215.67-30.6-322.37c17.36-104.91,50.68-206.8,90.31-305.24c79.76-198.1,186.48-384.24,261.59-584.35
	c75.29-200.62,112.92-415.46,217.47-604.73c103-186.4,267.46-315.47,452.23-415.11c23-12.39,2.52-47.42-20.47-35V3331.3z"/>
<path style="fill:#627F62;" d="M2967.19,3348.81C2752.77,3464,2591.11,3597.22,2484.41,3816
	c-68.12,139.7-115.41,310.65-160.41,459.42c-100.78,333.19-315.79,625.38-382.67,967c-23.13,118.1-25.89,244.53,22.47,354.73
	c45.39,103.42,134.51,185.45,239,228.42s223,47.82,332.49,20.16l3.67-51.87c24.84-345.15,85.78-690.82,110.62-1036
	c18.26-253.68,84.89-504,138.75-755.64c53.54-250.1,71.16-503.48,246.49-687.72L2967.19,3348.81z"/>
<ellipse style="fill:#2B4242;" cx="2967.19" cy="5364.82" rx="104.34" ry="372.99"/>
<path style="fill:#2B4242;" d="M2394.08,5334.45c0,190.94-53.34,345.73-119.13,345.73s-119.14-154.79-119.14-345.73
	s18.75-350,119.14-353.85C2356.71,4977.49,2394.08,5143.5,2394.08,5334.45z"/>
<path style="fill:#2B4242;" d="M3213.12,4878.7c69.39-16.94,135.8-45.81,194.64-86.45c26.23-18.12,51.56-38.83,68.39-66.35
	c18.19-29.75,24.38-64.57,32.4-98c17.87-74.39,53.93-142.37,76.31-215.26c22.75-74.08,25.49-152.93,53.9-225.44
	c4.76-12.15-14.84-17.42-19.56-5.39c-26.18,66.82-30.19,138.87-48.75,207.7c-19,70.34-53.34,135.26-74,205
	c-9.64,32.58-14,67-26.66,98.67c-13.74,34.29-39.85,58.81-69.59,79.63c-58.18,40.71-123.56,69.45-192.46,86.26
	c-12.67,3.1-7.31,22.66,5.39,19.56L3213.12,4878.7z"/>
<path style="fill:#2B4242;" d="M2583.94,3959.6c-47.84,196.073-87.327,393.906-118.46,593.5c-2,12.77,17.54,18.27,19.55,5.39
	c31.1-199.42,70.59-397.253,118.47-593.5C2606.59,3952.31,2587.04,3946.9,2583.94,3959.6L2583.94,3959.6z"/>
<path style="fill:#2B4242;" d="M2329.08,4932.93c-46.62-48-119.33-64.23-181.71-39.57c-12,4.74-6.77,24.36,5.39,19.55
	c56-22.13,119.92-9,162,34.36c9.11,9.38,23.44-5,14.34-14.34H2329.08z"/>
<path style="fill:#2B4242;" d="M2503.56,5342.8c1.66,87,3.32,174.19-3.73,261c-3.33,41-7.43,82.93-17.48,122.91
	c-8.07,32.1-22.59,67.51-56,79.86c-12.14,4.49-6.89,24.1,5.39,19.55c70.73-26.16,77.36-120,84.59-183.63
	c11.3-99.47,9.39-199.79,7.48-299.7c-0.25-13-20.53-13.08-20.28,0L2503.56,5342.8z"/>
<path style="fill:#1E4D54;" d="M2716.72,1897.35c127,131,331.72,205.57,331.72,205.57l133.93-3.12c0,0-98.11-95-135.49-146.39
	S2962.13,1793,2962.13,1793s62.3,121.48,165.09,196.23s200.08,107.08,200.08,107.08l285.81-21.42
	c2.4-56.23-15.23-146.45-49.83-221.15c-14-30.15,91.52,98.09,149.5,218c50.89,105.26,54.45,202.52,54.45,202.52
	s158.29-152.68,139.13-416.66c-9.88-136.26-42.9-389.89-305.71-581.67c-230.49-168.2-511.26-146.26-629.17-112.13
	c-177.54,51.42-360.42,170.2-399.48,315.4S2637.42,1815.59,2716.72,1897.35L2716.72,1897.35z"/>
<path style="opacity:0.22;fill:#1F512C;enable-background:new    ;" d="M2174.89,2068.82c262.52,80.58,110.72,49.3,373.24,129.89
	c242.82,74.53,486.49,149.27,737,191.22c346.59,58,647.72,150.21,992.2,80.69l-126.15-280.33l-2027.69-247.62L2174.89,2068.82z"/>
<path style="fill:#F2F9F4;" d="M5217.39,2180.69c-4.83-142.76-90.41-205.08-182.78-267.75s-202.71-93.28-312.61-112.76
	c-121.06-21.46-242.79-30.47-364.78-30.4l-2136.6-137.35c-335.05-25-656.25-4.88-800.31,76.81c-5.089,1.654-10.058,3.658-14.87,6
	c-58.28,29.1-119.72,91.78-138.5,154.15l3.53-1.08c224.83-57.93,463.24-13,688.15,44.58s874.37,250.24,948.06,271.65
	c473.32,137.46,1223.32,247.9,1744.88,263.07c102.45,4.48,149.17,1.37,163.4,0.53c178-10.45,344.73-58.58,389.18-178.13
	c4.995-12.116,8.803-24.688,11.37-37.54C5219.401,2212.23,5217.391,2180.69,5217.39,2180.69L5217.39,2180.69z"/>
<path style="fill:#F2F9F4;" d="M4280.85,1721.83c-24.38-241.83-154.29-463.93-335.4-620.83C3812,985.35,3587.06,843.24,3268,843.24
	h-12.22c-315.68,0-514.3,89.53-699.78,240.23c-6.76,5.487-13.427,11.087-20,16.8c-142.22,123.22-244.4,296.22-288.47,484.2
	c-39.15,151.56-67.75,288.34,202.63,305.74C2772.67,1911,3646.91,2061.26,4013,2086.44
	C4343.22,2109.15,4296.83,1837.65,4280.85,1721.83z"/>
<path style="fill:#BABABA;" d="M2389.08,4463.49h397.79c41.101,0,74.42,33.319,74.42,74.42v793.75
	c0,41.101-33.319,74.42-74.42,74.42h-397.79c-41.101,0-74.42-33.319-74.42-74.42v-793.75
	C2314.66,4496.809,2347.979,4463.49,2389.08,4463.49z"/>
<path style="fill:#575553;" d="M2535.59,4603.65h104.77c4.612,0,8.35,3.738,8.35,8.35v104.77c0,4.612-3.739,8.35-8.35,8.35h-104.77
	c-4.612,0-8.35-3.738-8.35-8.35V4612C2527.24,4607.388,2530.979,4603.65,2535.59,4603.65z"/>
<circle style="fill:#B3B3B3;" cx="2587.98" cy="4664.39" r="23.36"/>
<circle style="fill:#B3B3B3;" cx="2624.18" cy="4625.85" r="10.51"/>
<path style="fill:#DDE8E3;" d="M2989.64,5039.37c24.59,47.53,34.24,101.18,42.58,154c8,50.6,15.07,101.77,12,152.91
	c-2.76,46.06-9.44,83.22-21.14,127.86l-13.42,6c-56.47,15.25-92.27,20.67-145.11,10.88c-26.13-4.84-65.39-16.95-77.49-42.29
	c-11.46-24-17.42-51.94,1.06-71l-14.32-2.39c-27.49-1.62-52.48-21.34-62.56-47s-5.8-55.87,9.08-79
	c-28.44-14.52-43.3-46.67-42.64-78.6s16.81-62.05,45.83-75.38l-5.24,8.24c2-19.89,17-50.16,28.72-66.35
	c11.61-16,30-26.06,49.13-31.24s39.07-6,58.85-6.74c28.9-1.11,41.77,0.2,70.68-0.92c9.58-0.37,19.34-0.72,28.61,1.74
	s18.15,8.24,22,17"/>
<path style="fill:#DDE8E3;" d="M2222.1,5044.24c-17.94,46-21.6,96.09-24.12,145.37c-2.42,47.17-4,94.77,3.81,141.36
	c7,42,16.72,75.4,31.77,115.2l12.89,4.18c53.25,8.51,86.61,10,134.11-4.08c23.49-7,58.31-21.88,67-46.29
	c8.19-23.1,10.95-49.31-7.85-65l12.89-3.58c25-4.15,46.06-24.65,52.82-49.12s-0.1-51.79-16-71.6c24.67-16.06,35.18-47,31.48-76.19
	s-21.43-55.27-49.33-64.68l5.61,7.05c-3.76-18.05-20.45-44.35-32.77-58.05s-30.06-21-48.07-23.89s-36.41-1.69-54.61-0.48
	c-26.62,1.78-38.29,4.23-64.9,6c-8.83,0.59-17.81,1.21-26.07,4.38s-15.84,9.3-18.53,17.73"/>
<path style="fill:#E0E8DD;" d="M2976.27,5017.09c-3.86-8.78-12.74-14.55-22-17s-19-2.11-28.61-1.74
	c-28.91,1.12-41.78-0.19-70.68,0.92c-19.78,0.77-39.75,1.56-58.85,6.74s-37.52,15.22-49.13,31.24
	c-11.72,16.19-26.73,46.46-28.72,66.35l5.24-8.24c-29,13.33-45.17,43.45-45.83,75.38s14.2,64.08,42.64,78.6
	c-14.88,23.17-19.15,53.41-9.08,79s35.07,45.34,62.56,47l14.32,2.39c-18.48,19.1-12.52,47.05-1.06,71
	c12.1,25.34,51.36,37.45,77.49,42.29c52.84,9.79,88.64,4.37,145.11-10.88l13.42-6c11.7-44.64,18.38-81.8,21.14-127.86
	c3.07-51.14-4-102.31-12-152.91c-8.34-52.86-18-106.51-42.58-154"/>
<path style="fill:#E0E8DD;" d="M2222.1,5044.24c-17.94,46-21.6,96.09-24.12,145.37c-2.42,47.17-4,94.77,3.81,141.36
	c7,42,16.72,75.4,31.77,115.2l12.89,4.18c53.25,8.51,86.61,10,134.11-4.08c23.49-7,58.31-21.88,67-46.29
	c8.19-23.1,10.95-49.31-7.85-65l12.89-3.58c25-4.15,46.06-24.65,52.82-49.12s-0.1-51.79-16-71.6c24.67-16.06,35.18-47,31.48-76.19
	s-21.43-55.27-49.33-64.68l5.61,7.05c-3.76-18.05-20.45-44.35-32.77-58.05s-30.06-21-48.07-23.89s-36.41-1.69-54.61-0.48
	c-26.62,1.78-38.29,4.23-64.9,6c-8.83,0.59-17.81,1.21-26.07,4.38s-15.84,9.3-18.53,17.73"/>
<path style="fill:#A4C4B0;" d="M3032.06,5195.71c-4.71-51,16.9,89.68,12,152.91c-3.56,46-9.44,83.22-21.14,127.87l-13.42,6
	c-56.47,15.25-92.27,20.67-145.11,10.88c-26.14-4.84-65.39-16.95-77.49-42.29c-1.19-2.47,125.92,34.25,181.07-22.22
	C3034.83,5360.38,3032.15,5196.67,3032.06,5195.71L3032.06,5195.71z"/>
<path style="fill:#A4C4B0;" d="M2197.82,5191.91c-2.42,47.18-4,94.78,3.81,141.37c7,42,16.72,75.39,31.77,115.19l12.88,4.18
	c53.26,8.51,86.61,10,134.11-4.08c23.5-7,58.32-21.88,67-46.28l-65.84-3.69c-40.4-2.26-84.34-16.7-117.3-42
	c-25.63-19.63-42.64-48.45-49.1-80.09L2197.82,5191.91z"/>
<ellipse style="fill:#AED2CF;" cx="1930.17" cy="6173.67" rx="347.24" ry="60.74"/>
<path style="fill:#5FAA8B;" d="M2024.36,6190h-380.21c-25.33,0-45.86-18.22-45.86-40.7l-63.69-498.19c0-22.48,20.53-40.7,45.86-40.7
	h507.59c25.32,0,45.85,18.22,45.85,40.7l-63.69,498.19C2070.21,6171.75,2049.68,6190,2024.36,6190L2024.36,6190z"/>
<path style="fill:#559877;" d="M1557.43,5516.71h553.64c35.545,0,64.36,28.815,64.36,64.36v87.89c0,35.545-28.815,64.36-64.36,64.36
	h-553.64c-35.545,0-64.36-28.815-64.36-64.36v-87.89C1493.07,5545.525,1521.885,5516.71,1557.43,5516.71z"/>
<path style="fill:#AFBBB2;" d="M1834.62,5647.73c-298.42,0-315.13-48.38-296.42-80.3c9.26-15.81,26.65-27.76,45-27.76h502.46
	c17.34,0,33.84,11,43.46,25.45C2150.22,5596.821,2140.7,5647.73,1834.62,5647.73L1834.62,5647.73z"/>
<g>
	<defs>
		<path id="SVGID_1_" d="M1833.78,5650.43c-298.41-2.61-314.69-51.14-295.71-82.89c9.4-15.73,26.89-27.53,45.21-27.37l502.44,4.4
			c17.34,0.15,33.75,11.32,43.24,25.83C2149.81,5602.29,2139.85,5653.11,1833.78,5650.43L1833.78,5650.43z"/>
	</defs>
	<clipPath id="SVGID_2_">
		<use xlink:href="#SVGID_1_"  style="overflow:visible;"/>
	</clipPath>
	<g style="clip-path:url(#SVGID_2_);">
		<path style="fill:#3C4A3F;" d="M2084.05,5629.24c-0.35,40.14-505.67,21.26-505.83-4.43c-0.26-40.15,113.91-77.1,253.6-75.88
			S2084.4,5589.09,2084.05,5629.24z"/>
	</g>
</g>
<path style="fill:#C0C763;" d="M1812.58,5565.89c-55.6-78.16-70.77-178.28-70-274.19c0.72-90.49,15.36-184,64.79-259.8
	c16.2-24.82,37.56-48.45,66.05-56.62c4.46-1.28,9.36-2.13,13.63-0.32c3.9,1.65,6.6,5.24,8.89,8.8
	c20.54,31.86,23.16,71.66,25.17,109.52c4.55,85.55,9,172.28-8.73,256.1c-6.33,29.89-15.43,59.12-24.52,88.3
	c-13.7,44-27.397,87.97-41.09,131.91"/>
<path style="fill:#F2F9F4;" d="M1814.77,5564.61c-44.82-64.5-63.41-141.59-68.28-219.11c-4.7-74.81-0.26-152.65,22.29-224.5
	c12-38.2,29.54-77.1,55.57-108c10.59-12.56,31.88-35.57,49.74-35.32c26.8,0.38,34.11,35.19,38.29,55.94
	c8.23,40.85,7.84,84.37,9.3,125.89c1.51,42.8,1.6,85.75-2.54,128.41c-9.35,96.25-46.23,189.17-74.82,281
	c-1,3.12,3.92,4.46,4.89,1.35c28.35-91,64.71-183.08,74.6-278.45c5.09-49.12,4.42-98.61,2.33-147.88
	c-1.79-42.07-0.67-87.06-12.9-127.76c-3.68-12.25-9.53-31.58-19.87-39.73c-11.27-8.87-24.13-3.47-35.8,2.46
	c-34,17.29-56.15,53.84-72.36,86.95c-36.13,73.78-45.84,158-45.17,239.25c0.75,91.65,17.15,185.5,70.35,262.06
	C1812.24,5569.831,1816.64,5567.301,1814.77,5564.61L1814.77,5564.61z"/>
<path style="fill:#C0C763;" d="M1841.65,5568.36c-5.75-64.66-39.52-123.69-70.71-180.62c-13.75-25.1-27.58-50.32-45.21-72.85
	c-17-21.76-37.35-40.69-57.58-59.52l-52.24-48.62c-19.89-18.51-40-37.18-63.42-50.95c-18.08-10.61-42.89-17.45-58.6-3.58
	c-9.51,8.4-12.46,22-13,34.66c-2,45.95,20.2,89.07,41.86,129.65c27.63,51.78,55.65,103.87,93,149.16s85.06,83.85,141.25,100.83
	c28.39,8.57,52.8,13.5,79.83,25.71"/>
<path style="fill:#F2F9F4;" d="M1844.19,5568.36c-4.24-40.28-17.78-78-35.31-114.32c-19.22-39.8-40.41-80-64.46-117.1
	c-22-34-50.82-61.34-80.28-88.76c-31.12-29-61.24-60.87-96.15-85.35c-20-14-53.44-32.35-75.89-12.4s-14.25,62-7.25,86.77
	c11.28,40,33.31,76.74,53.1,112.95c20.62,37.71,42.49,74.91,69.1,108.75s58.16,64.25,95.34,86.18
	c41.59,24.54,89.32,30.35,133.13,49.34c3,1.29,5.55-3.08,2.56-4.38c-30.06-13-62.16-18.84-92.79-30.09
	c-35.33-13-67-34.51-94.29-60.2c-54.84-51.57-91.09-118.78-126.07-184.5c-18.91-35.52-38.86-73-41.37-113.95
	c-1.34-22,2.42-52.19,30.32-54.28c19.89-1.48,38.92,11,54.33,22.14c32.27,23.24,60.4,52.88,89.44,79.9
	c27.34,25.45,55.09,50.61,76.43,81.53c23.07,33.41,41.92,70.41,60.6,106.41c21.47,41.46,39.52,84.54,44.44,131.34
	c0.34,3.22,5.41,3.25,5.07,0L1844.19,5568.36z"/>
<path style="fill:#C0C763;" d="M1838.77,5587.36c12.83-105.29,27.12-214.65,85.82-303.88c53.39-81.13,141.27-138.7,237.24-161.65
	c7.31-1.75,15.17-3.28,22.19-0.66c16.56,6.19,16.66,28.87,12.7,45.74c-21.1,89.82-72.82,170.61-135.91,239.19
	s-148.08,128-222.36,184.87"/>
<path style="fill:#F2F9F4;" d="M1841.31,5587.36c9.74-79.78,19.89-161.15,50.64-236.07c29.93-73.287,82.355-135.18,149.72-176.76
	c31.953-19.762,66.464-35.051,102.57-45.44c8-2.31,20.55-7.48,28.79-6.69c17.67,1.67,23.66,13.88,23.24,29.87
	c-0.52,19.8-8.79,40.7-15.39,59.17c-26.87,75.29-74.06,142.74-128.88,200.35c-64.12,67.38-141.23,120.74-214.83,177
	c-2.56,2,0,6.36,2.56,4.38c141.83-108.39,295.26-217.65,351.39-396.34c6.25-19.89,22.43-63.17-3.76-76.79
	c-11.82-6.16-26.49-0.76-38.41,2.47c-19.46,5.294-38.51,11.996-57,20.05c-74.54,32.38-139.58,86.73-180.48,157.36
	c-50.42,87.09-63.24,189.27-75.23,287.45c-0.4,3.23,4.68,3.2,5.07,0L1841.31,5587.36z"/>
<path style="fill:#F2F9F4;" d="M1566.3,5232.56c36.42,67.3,82.07,128,131.58,186.1c48,56.42,97.67,111.43,138.38,173.59
	c1.78,2.72,6.17,0.18,4.38-2.56c-38.67-59-85.28-111.76-131.13-165.2c-52.14-60.8-100.62-123.87-138.83-194.49
	C1569.12,5227.129,1564.74,5229.689,1566.3,5232.56L1566.3,5232.56z"/>
<path style="fill:#F2F9F4;" d="M1855.31,5070.92c-34.09,157.16-28.22,318.33-15.45,477.6c0.26,3.23,5.33,3.26,5.07,0
	c-12.73-158.8-18.73-319.54,15.27-476.25C1860.89,5069.09,1856,5067.73,1855.31,5070.92z"/>
<path style="fill:#F2F9F4;" d="M2092.31,5224.06c-52.17,52-103.43,105.42-146.68,165.25s-76.44,125.22-103.6,193.57
	c-1.21,3,3.69,4.35,4.88,1.35c27-67.95,60.18-133,103.09-192.36s94-112.5,145.89-164.23
	C2098.21,5225.34,2094.62,5221.75,2092.31,5224.06z"/>
<path style="fill:#F2F9F4;" d="M1755,5158.9c52.48,39.5,108,72.77,168.36,98.85c3,1.29,5.54-3.08,2.55-4.37
	c-60.33-26.09-115.87-59.36-168.35-98.86C1754.95,5152.52,1752.43,5156.96,1755,5158.9z"/>
<path style="fill:#F2F9F4;" d="M1747.78,5196.56c54,38,109.77,67.28,173.38,85.54c3.14,0.9,4.48-4,1.35-4.89
	c-63.25-18.16-118.54-47.27-172.17-85c-2.67-1.88-5.21,2.52-2.56,4.38L1747.78,5196.56z"/>
<path style="fill:#F2F9F4;" d="M1526.7,5327.66c69.58,10,136,10.68,204.94-3.87c3.19-0.67,1.84-5.56-1.34-4.89
	c-68.23,14.39-133.5,13.74-202.26,3.87C1524.85,5322.31,1523.47,5327.2,1526.7,5327.66z"/>
<path style="fill:#F2F9F4;" d="M1551.94,5373.33c70.78,11.82,137.77,12.23,207.5-6c3.15-0.82,1.82-5.72-1.35-4.89
	c-69,18-134.75,17.69-204.8,6C1550.1,5367.91,1548.73,5372.79,1551.94,5373.33z"/>
<path style="fill:#F2F9F4;" d="M2037.42,5173.44c11.68,62.87,32.7,121,72.21,171.84c2,2.57,5.57-1,3.59-3.59
	c-38.85-50-59.44-107.84-70.91-169.59C2041.71,5168.89,2036.83,5170.25,2037.42,5173.44L2037.42,5173.44z"/>
<path style="fill:#F2F9F4;" d="M1977.76,5217.32c19.25,64.93,46.83,125.85,81.32,184.07c1.66,2.81,6,0.26,4.37-2.56
	c-34.24-57.81-61.68-118.38-80.8-182.85C1981.73,5212.859,1976.83,5214.189,1977.76,5217.32L1977.76,5217.32z"/>
<path style="fill:#F2F9F4;" d="M1953.67,5242.34c15.48,68.76,41,130.66,82.72,187.77c1.9,2.61,6.3,0.08,4.38-2.56
	c-41.44-56.78-66.82-118.18-82.21-186.56C1957.85,5237.81,1952.96,5239.16,1953.67,5242.34z"/>
<path style="fill:#2E423A;" d="M1593.37,5753.56c0,0,66,10.79,128.85,10.79h94.92c0,0-80.06-1.81-163.91,22.29
	c-37.54,10.79-52.76,25.18-52.76,25.18L1593.37,5753.56z"/>
</svg>
