<svg xmlns="http://www.w3.org/2000/svg" width="375" height="1080" viewBox="0 0 375 1080">
  <g id="Group_456" data-name="Group 456" transform="translate(8 55)">
    <rect id="ResultsCompBKG" width="375" height="1032" transform="translate(-8 -8)" fill="#7c8c80"/>
    <g id="CurveIllustration" transform="translate(367 1836) rotate(180)">
      <rect id="Rectangle_1684" data-name="Rectangle 1684" width="375" height="48" transform="translate(0 811)" fill="#3c493f"/>
      <path id="Resultscurvedivider" d="M8925,1364.354s14.125,26.232,53.677,24.183,73.869-37.109,122.067-24.183,97.747,42.8,148.125,35.091,51.131-34.49,51.131-34.49V1409.5H8925Z" transform="translate(-8925 -547.5)" fill="#7c8c80"/>
    </g>
    <g id="CurveIllustration-2" data-name="CurveIllustration" transform="translate(-8 -867)">
      <rect id="Rectangle_1684-2" data-name="Rectangle 1684" width="375" height="48" transform="translate(0 812)" fill="#b3bfb6"/>
      <path id="Resultscurvedivider-2" data-name="Resultscurvedivider" d="M8925,1364.354s14.125,26.232,53.677,24.183,73.869-37.109,122.067-24.183,97.747,42.8,148.125,35.091,51.131-34.49,51.131-34.49V1409.5H8925Z" transform="translate(-8925 -547.5)" fill="#7c8c80"/>
    </g>
  </g>
</svg>
